<svg xmlns="http://www.w3.org/2000/svg" width="1367" height="323" viewBox="0 0 1367 323">
  <g id="Group_33" data-name="Group 33" transform="translate(0.5 -3621.5)">
    <g id="Group_32" data-name="Group 32" transform="translate(-483.289 3290.302)" opacity="0.4">
      <path id="Path_8" data-name="Path 8" d="M1379.79,537.737a15.519,15.519,0,1,1,14.2-9.2A15.429,15.429,0,0,1,1379.79,537.737Zm.04-26.272a10.756,10.756,0,1,0,4.357.93h0A10.664,10.664,0,0,0,1379.829,511.465Z" fill="#fff"/>
    </g>
    <path id="Path_11" data-name="Path 11" d="M-406.99,322v-2.58l-17.7-10.222-17.7-10.223L-460.1,309.2l-17.7,10.222V322h-1.8v-2.58l-17.7-10.222-17.7-10.223L-542.8,315.022a9.322,9.322,0,0,1,.86,3.877,9.291,9.291,0,0,1-.529,3.1h-17.7a9.286,9.286,0,0,1-.529-3.1,9.379,9.379,0,0,1,9.381-9.38,9.347,9.347,0,0,1,7.619,3.944l27.788-16.045V256.531l-35.407-20.443L-579.1,252.133a9.321,9.321,0,0,1,.861,3.88,9.38,9.38,0,0,1-9.379,9.382A9.379,9.379,0,0,1-597,256.013a9.378,9.378,0,0,1,9.378-9.38,9.346,9.346,0,0,1,7.617,3.942l27.791-16.047V192.6l36.306-20.964V130.752L-543.7,114.705a9.346,9.346,0,0,1-7.619,3.946,9.381,9.381,0,0,1-9.381-9.382,9.38,9.38,0,0,1,9.381-9.38,9.378,9.378,0,0,1,9.377,9.38,9.332,9.332,0,0,1-.86,3.878l27.789,16.046,36.306-20.964,36.306,20.964,35.406-20.444V76.631a9.346,9.346,0,0,1-8.475-9.291,9.378,9.378,0,0,1,9.375-9.38,9.351,9.351,0,0,1,7.62,3.946l28.69-16.564L-368,46.368v2.076l-1.779-1.027L-397.57,63.463a9.288,9.288,0,0,1,.86,3.877,9.348,9.348,0,0,1-8.48,9.291v32.118l17.7,10.221,17.706,10.223,1.779-1.028v2.076l-.88.508v40.889l.88.508v2.076l-1.779-1.027-17.706,10.223-10.087,5.823a9.3,9.3,0,0,1,.862,3.879,9.348,9.348,0,0,1-8.48,9.291v32.117l17.7,10.223,17.706,10.222,1.779-1.027v2.076l-.88.508v32.116q.446.043.88.127v18.374a9.428,9.428,0,0,1-1.779.169,9.352,9.352,0,0,1-7.618-3.942L-405.19,319.42V322Zm-16.8-75.692-10.083,5.823a9.311,9.311,0,0,1,.859,3.877A9.348,9.348,0,0,1-441.5,265.3v32.117l17.7,10.222,17.7,10.222,27.793-16.045a9.315,9.315,0,0,1-.863-3.883,9.346,9.346,0,0,1,8.482-9.287V256.531l-17.706-10.223-17.706-10.221Zm-72.611,0-17.7,10.223v40.886l17.7,10.222,17.7,10.222L-461,307.64l17.7-10.222V265.3a9.349,9.349,0,0,1-8.477-9.292,9.3,9.3,0,0,1,.86-3.877L-461,246.308l-17.7-10.221Zm-54.01-52.666v40.886l35.405,20.445,17.7-10.222,17.7-10.223V193.642l-17.7-10.223-17.7-10.223Zm90.316-10.223-17.7,10.223v40.886l17.7,10.223,10.085,5.824a9.345,9.345,0,0,1,7.618-3.946,9.347,9.347,0,0,1,7.619,3.944l10.084-5.822,17.7-10.223V202.412a9.346,9.346,0,0,1-8.475-9.289,9.313,9.313,0,0,1,.86-3.878l-10.088-5.826L-442.4,173.2Zm-54.01-52.669v40.889l17.7,10.222,17.7,10.223,17.7-10.223,17.7-10.222V130.75L-478.7,110.3Zm72.613,0v40.889l17.7,10.222,10.089,5.826a9.342,9.342,0,0,1,7.615-3.944,9.352,9.352,0,0,1,7.618,3.942l10.087-5.824,17.706-10.222V130.75l-17.706-10.222L-406.09,110.3Z" transform="translate(1734 3622)" fill="#fff" stroke="rgba(0,0,0,0)" stroke-width="1" opacity="0.4"/>
    <path id="Path_13" data-name="Path 13" d="M-1316.984,322A36.84,36.84,0,0,1-1325,299a37,37,0,0,1,37-37,37,37,0,0,1,37,37,36.84,36.84,0,0,1-8.016,23Z" transform="translate(1734 3622)" fill="#fff" opacity="0.4"/>
    <path id="Path_6" data-name="Path 6" d="M366.216,307.279a3.062,3.062,0,0,0-3.969-.728,7.69,7.69,0,0,1-5.562.306l-3.953-1.284c-2.939-.955-7.507-4.352-8.709-7.5-.03.171-.066.343-.1.514.07-.376.142-.752.2-1.131.036-.232-2.912.027-5.917.3q.149-.78.265-1.572c3.038-.76,5.995-1.508,6.017-1.773q.075-.892.11-1.8a11.961,11.961,0,0,1,2.815-.4h3.573a6.605,6.605,0,0,1,4.465,1.73,2.633,2.633,0,0,0,3.438.457,4.309,4.309,0,0,0,0-7.151,2.632,2.632,0,0,0-3.438.458,6.6,6.6,0,0,1-4.465,1.728h-3.574a11.918,11.918,0,0,1-2.814-.405c-.015-.359-.033-.717-.057-1.074-.019-.281-3.324-1.559-6.1-2.673-.063-.417-.135-.832-.211-1.244,2.731.547,6.05,1.276,6.01.984-.075-.545-.163-1.086-.258-1.624.01.056.022.112.032.168,1.2-3.15,5.772-6.546,8.71-7.5l3.952-1.284a7.688,7.688,0,0,1,5.563.308,3.064,3.064,0,0,0,3.969-.728,5.015,5.015,0,0,0-2.57-7.912,3.063,3.063,0,0,0-3.639,1.744,7.691,7.691,0,0,1-4.32,3.517l-3.953,1.284c-2.939.955-8.631.892-11.455-.951.036.074.069.15.105.224-.178-.366-.353-.733-.54-1.093-.16-.307-2.582,1.9-4.622,3.671-.192-.4-.393-.789-.6-1.177,1.73-2.291,3.816-4.979,3.679-5.2q-.372-.6-.763-1.188a11.935,11.935,0,0,1,2.036-1.979l2.89-2.1a6.608,6.608,0,0,1,4.63-1.225,2.635,2.635,0,0,0,3.051-1.651,4.311,4.311,0,0,0-4.2-5.785,2.632,2.632,0,0,0-2.513,2.392,6.6,6.6,0,0,1-2.6,4.022l-2.89,2.1a11.919,11.919,0,0,1-2.525,1.331c-.523-.326-3.568.729-5.427,1.138a6.987,6.987,0,0,1-1.338-.132l-.08-.082c.408-1.031,4.244-3.932,3.732-4.449q-.657-.663-1.345-1.3c.264.244.53.488.787.738-.88-3.254.821-8.688,2.636-11.189l2.444-3.362a7.691,7.691,0,0,1,4.681-3.021,3.064,3.064,0,0,0,2.783-2.922,5.016,5.016,0,0,0-6.731-4.89,3.063,3.063,0,0,0-1.919,3.55,7.686,7.686,0,0,1-1.427,5.384l-2.443,3.363c-1.817,2.5-6.458,5.8-9.826,5.964.169.089.335.186.5.278-.972-.531-1.964-1.034-2.981-1.49-.367-.165-1.085,3.721-1.609,5.335a9.847,9.847,0,0,1-.747-2.523c-.063-1.379-.112-2.844-.2-3.6a12.248,12.248,0,0,1,.5-3.041l1.1-3.4a6.607,6.607,0,0,1,3.025-3.712,2.635,2.635,0,0,0,1.5-3.13,4.311,4.311,0,0,0-6.8-2.209,2.633,2.633,0,0,0-.626,3.412,6.6,6.6,0,0,1,.264,4.781l-1.1,3.4a11.928,11.928,0,0,1-1.25,2.542q-.8-.222-1.6-.414c-.57-.135-2.3,4.686-2.88,4.574-.286-.055.583-5.051.295-5.1-.491-.084-.986-.155-1.482-.223.1.013.195.023.291.037-2.624-2.116-4.444-7.511-4.444-10.6v-4.156a7.689,7.689,0,0,1,2.012-5.194,3.064,3.064,0,0,0,.533-4,5.016,5.016,0,0,0-8.319,0,3.064,3.064,0,0,0,.534,4,7.688,7.688,0,0,1,2.011,5.194v4.156c0,3.09-1.819,8.485-4.444,10.6-.151.024-.865,3.656-1.3,5.493-.133-.085-.266-.173-.4-.269-.025-1.836.026-4.953-.106-4.929q-1.818.34-3.578.832a11.928,11.928,0,0,1-1.249-2.542l-1.1-3.4a6.615,6.615,0,0,1,.265-4.782,2.634,2.634,0,0,0-.626-3.412,4.312,4.312,0,0,0-6.8,2.21,2.632,2.632,0,0,0,1.5,3.128,6.617,6.617,0,0,1,3.024,3.714l1.1,3.4a11.931,11.931,0,0,1,.484,2.8c-.5.364-.351,3.048-.42,4.943a7.9,7.9,0,0,1-.683,1.761c-.864-.783-2.7-5.089-3.264-4.805-.349.177-.69.367-1.033.553.128-.069.254-.143.382-.211-3.367-.169-8.009-3.465-9.826-5.965l-2.443-3.362a7.691,7.691,0,0,1-1.426-5.386,3.064,3.064,0,0,0-1.92-3.549,5.015,5.015,0,0,0-6.73,4.89,3.063,3.063,0,0,0,2.783,2.922,7.693,7.693,0,0,1,4.68,3.021l2.443,3.362c1.816,2.5,3.515,7.934,2.635,11.188.411-.4.833-.787,1.263-1.172q-1.372,1.23-2.635,2.574c-.352.374,4.087,2.64,4.733,3.415-.089.091-.179.181-.267.273q-.277.056-.572.087a28.456,28.456,0,0,1-5.669-.9,12.734,12.734,0,0,1-3.048-1.528l-2.89-2.1a6.6,6.6,0,0,1-2.6-4.025,2.636,2.636,0,0,0-2.513-2.392,4.312,4.312,0,0,0-4.2,5.786,2.633,2.633,0,0,0,3.052,1.65,6.611,6.611,0,0,1,4.629,1.227l2.89,2.1a11.93,11.93,0,0,1,2.036,1.978q-.391.587-.763,1.188c-.127.205,2.192,2.757,3.771,4.6.02.114.035.225.047.337-.1.181-.194.364-.289.547-1.855-1.37-4.62-3.616-4.766-3.347-.258.477-.5.961-.743,1.448l0-.007c-2.824,1.842-8.516,1.9-11.455.95l-3.953-1.284a7.688,7.688,0,0,1-4.319-3.519,3.065,3.065,0,0,0-3.639-1.743,5.016,5.016,0,0,0-2.571,7.912,3.063,3.063,0,0,0,3.968.729,7.688,7.688,0,0,1,5.562-.307l3.952,1.284c2.94.955,7.508,4.352,8.709,7.5.023-.131.05-.261.075-.391-.09.492-.177.985-.249,1.483-.084.581,3.59.4,5.761.537-.035.224-.065.448-.095.674a7.684,7.684,0,0,1-1.425,1.183c-2.035.756-4.374,1.576-4.626,1.973a11.968,11.968,0,0,1-2.836.41h-3.573a6.609,6.609,0,0,1-4.466-1.731,2.635,2.635,0,0,0-3.439-.457,4.312,4.312,0,0,0,0,7.152,2.633,2.633,0,0,0,3.439-.459,6.611,6.611,0,0,1,4.465-1.728h3.573a11.943,11.943,0,0,1,2.825.408c.2.914,4.185,2.057,5.965,3.051.034.035.063.072.1.108q.07.517.154,1.03c-1.575.447-5.739.727-5.646,1.271v0c-1.2,3.149-5.77,6.545-8.708,7.5l-3.952,1.284a7.688,7.688,0,0,1-5.563-.309,3.064,3.064,0,0,0-3.968.729,5.015,5.015,0,0,0,2.57,7.912,3.065,3.065,0,0,0,3.64-1.743,7.684,7.684,0,0,1,4.319-3.518l3.953-1.284c2.939-.955,8.631-.892,11.455.95a.131.131,0,0,1-.006-.013c.293.6.6,1.189.918,1.77a61.953,61.953,0,0,0,3.982-4.907c.119.253.24.5.365.753-1.555,2.569-3.476,5.657-3.353,5.86q.4.659.833,1.3a11.927,11.927,0,0,1-2.036,1.978l-2.889,2.1a6.613,6.613,0,0,1-4.631,1.225,2.634,2.634,0,0,0-3.051,1.65,4.312,4.312,0,0,0,4.2,5.786,2.634,2.634,0,0,0,2.513-2.393,6.6,6.6,0,0,1,2.6-4.022l2.89-2.1a11.942,11.942,0,0,1,2.507-1.323c.057.108.1.273.2.236a15.958,15.958,0,0,1,6.391-1.292c.068.011.131.029.2.042.067.069.135.138.2.207-.873.531-5.855,2.165-5.647,2.4q1.294,1.475,2.72,2.826c-.123-.116-.248-.229-.369-.346.879,3.255-.82,8.688-2.637,11.188l-2.442,3.362a7.689,7.689,0,0,1-4.682,3.02,3.065,3.065,0,0,0-2.783,2.923,5.015,5.015,0,0,0,6.73,4.89,3.062,3.062,0,0,0,1.919-3.549,7.692,7.692,0,0,1,1.427-5.386l2.443-3.362c1.816-2.5,6.456-5.793,9.823-5.964.405.214.812.423,1.224.624.587.287,1.584-4.53,2.27-5.327.134.067.266.134.4.2l.025.042c.432,1.356.594,6.2,1.1,6.7a11.926,11.926,0,0,1-.484,2.805l-1.1,3.4a6.611,6.611,0,0,1-3.026,3.713,2.634,2.634,0,0,0-1.5,3.128,4.311,4.311,0,0,0,6.8,2.211,2.635,2.635,0,0,0,.626-3.413,6.6,6.6,0,0,1-.264-4.781l1.1-3.4a11.961,11.961,0,0,1,1.249-2.541q.346.1.695.188c.539.14,2.793-3.25,4.24-4.983.317.056.637.109.957.157-.556,1.908-1.95,5.537-1.609,5.594.461.078.926.143,1.392.206-.1-.013-.2-.022-.294-.037,2.625,2.116,4.444,7.511,4.444,10.6V347.7a7.69,7.69,0,0,1-2.012,5.195,3.063,3.063,0,0,0-.533,4,5.015,5.015,0,0,0,8.319,0,3.063,3.063,0,0,0-.533-4A7.686,7.686,0,0,1,303.7,347.7v-4.156c0-3.091,1.82-8.484,4.445-10.6-.063.009-.128.016-.193.024.527-.073,1.053-.151,1.573-.243.428-.076-1-4.667-.578-4.756.461-.1,2.774,4.311,3.229,4.2s.9-.228,1.348-.353a11.942,11.942,0,0,1,1.25,2.542l1.1,3.4a6.6,6.6,0,0,1-.265,4.781,2.635,2.635,0,0,0,.626,3.413,4.311,4.311,0,0,0,6.8-2.21,2.631,2.631,0,0,0-1.5-3.129,6.61,6.61,0,0,1-3.024-3.714l-1.1-3.4a11.885,11.885,0,0,1-.483-2.79q.773-.288,1.531-.6c.483-.2-1.04-3.3-1.12-4.318.027-.106.059-.208.09-.311.344-.125,3.344,3.584,3.666,3.423.408-.2.807-.423,1.207-.639-.12.065-.237.134-.357.2,3.368.169,8.01,3.464,9.827,5.965l2.443,3.362a7.689,7.689,0,0,1,1.426,5.386,3.063,3.063,0,0,0,1.918,3.549,5.014,5.014,0,0,0,6.731-4.889,3.061,3.061,0,0,0-2.782-2.922,7.692,7.692,0,0,1-4.68-3.022l-2.443-3.362c-1.816-2.5-3.516-7.933-2.636-11.189q-.624.6-1.279,1.186a42.65,42.65,0,0,0,3.089-3.063c.283-.31-3.876-1.7-5.6-2.509q.131-.129.26-.26l.036-.037c.132-.134.264-.268.4-.4a6.65,6.65,0,0,1,1.031-.122,17.584,17.584,0,0,1,3.78.479,14.355,14.355,0,0,1,4.481,1.978l2.891,2.1a6.607,6.607,0,0,1,2.6,4.025,2.635,2.635,0,0,0,2.513,2.392,4.311,4.311,0,0,0,4.2-5.785,2.633,2.633,0,0,0-3.051-1.651,6.6,6.6,0,0,1-4.63-1.227l-2.891-2.1a11.943,11.943,0,0,1-2.036-1.979q.391-.589.764-1.189c.16-.259-2.125-3.057-3.715-5.133q.266-.5.518-1.014c1.929,1.486,4.585,3.729,4.759,3.394s.33-.66.491-.992c-.027.056-.052.114-.079.169,2.823-1.842,8.516-1.9,11.455-.95l3.953,1.284a7.691,7.691,0,0,1,4.32,3.518,3.063,3.063,0,0,0,3.638,1.744,5.015,5.015,0,0,0,2.571-7.912Z" transform="translate(-136.303 3485.146)" fill="#fff" opacity="0.4"/>
    <path id="Path_2" data-name="Path 2" d="M1355.953,380.17a2.541,2.541,0,0,1,2.536,2.538v5.447h-5.232v-5.447a2.542,2.542,0,0,1,2.538-2.538h.158m0-1.052h-.158a3.59,3.59,0,0,0-3.589,3.59v6.5h7.335v-6.5a3.589,3.589,0,0,0-3.589-3.59Zm-3.747,10.087v6.5a3.59,3.59,0,0,0,3.589,3.588h.158a3.589,3.589,0,0,0,3.589-3.588v-6.5Zm26.5,14.178a6.59,6.59,0,0,0,0-9.319l-.207-.206a6.591,6.591,0,0,0-9.316,0l-8.438,8.438,9.525,9.526Zm-17.962-1.088-8.437,8.438a6.585,6.585,0,0,0,0,9.316l.206.208a6.589,6.589,0,0,0,9.318,0l8.438-8.436Zm.342,17.219a5.539,5.539,0,0,1-7.826,0l-.208-.211a5.531,5.531,0,0,1,0-7.828l7.692-7.693,8.036,8.037Z" transform="matrix(0.259, -0.966, 0.966, 0.259, 315.07, 5023.562)" fill="#fff" opacity="0.4"/>
    <path id="Path_12" data-name="Path 12" d="M-1167.538,366.054l-15.022-39.14-41.409-6.557-15.022-39.14-31.7-5.018a9.31,9.31,0,0,1-1.771,3.557,9.38,9.38,0,0,1-13.193,1.388,9.378,9.378,0,0,1-1.383-13.192,9.377,9.377,0,0,1,13.189-1.386,9.348,9.348,0,0,1,3.439,7.856l31.7,5.019,20.212-24.961a9.371,9.371,0,0,1-1.75-11.034h16.584a9.459,9.459,0,0,1,1.053,4.95l31.693,5.018,8.073-9.968h2.315l-8.989,11.1,7.325,19.085,7.325,19.085,20.191,3.2,20.191,3.2,20.212-24.961a9.348,9.348,0,0,1-.741-12.555,9.3,9.3,0,0,1,3.109-2.471l-4.173-10.873-1.844-4.805H-1096l1.6,4.161,4.172,10.872a9.345,9.345,0,0,1,8.4,1.729,9.35,9.35,0,0,1,3.44,7.86l11.5,1.821,20.192,3.2,20.212-24.959a9.4,9.4,0,0,1-2.593-4.679h27.352l2.633.417,20.192,3.2,2.928-3.615h2.315l-3.844,4.747,7.325,19.084,7.326,19.085,40.38,6.394,20.211-24.958A9.35,9.35,0,0,1-903,255.243a9.3,9.3,0,0,1,3.111-2.472l-3.578-9.323h1.927l3.331,8.679a9.351,9.351,0,0,1,8.4,1.732,9.379,9.379,0,0,1,1.389,13.19,9.348,9.348,0,0,1-12.439,1.884l-20.21,24.958,14.836,38.657-1.679.644-14.837-38.656-40.38-6.395-26.384,32.583-41.41-6.556-20.21,24.959a9.349,9.349,0,0,1,.745,12.554,9.382,9.382,0,0,1-13.194,1.39,9.351,9.351,0,0,1-3.439-7.859l-31.7-5.02-26.384,32.583Zm-13.343-39.783,14.648,38.17,40.382,6.393,25.731-31.775-7.324-19.085-7.324-19.086-20.192-3.2-20.191-3.2Zm67.792-26.027,7.325,19.085,7.326,19.085,31.7,5.021a9.327,9.327,0,0,1,1.773-3.561,9.347,9.347,0,0,1,12.436-1.88l20.21-24.957-7.327-19.087-7.327-19.086-20.191-3.2-11.5-1.821a9.31,9.31,0,0,1-1.773,3.554,9.347,9.347,0,0,1-12.435,1.885Zm-124.223-19.67,14.65,38.171,40.382,6.394,25.732-31.775-7.326-19.085-7.325-19.086-31.693-5.018a9.322,9.322,0,0,1-1.773,3.554,9.348,9.348,0,0,1-12.434,1.885Zm192.017-6.356,7.325,19.087,7.327,19.086,40.384,6.393,25.731-31.775-7.325-19.085-7.325-19.085-20.193-3.2-11.5-1.823a9.288,9.288,0,0,1-1.771,3.556,9.347,9.347,0,0,1-12.437,1.885Z" transform="translate(1734 3378.553)" fill="#fff" stroke="rgba(0,0,0,0)" stroke-width="1" opacity="0.4"/>
    <g id="Group_27" data-name="Group 27" transform="translate(-726.289 3391.677)" opacity="0.4">
      <path id="Path_7" data-name="Path 7" d="M1371.113,520.362a6.832,6.832,0,1,1,6.252-4.051A6.791,6.791,0,0,1,1371.113,520.362Zm.017-11.566a4.735,4.735,0,1,0,1.918.409h0A4.694,4.694,0,0,0,1371.13,508.8Z" transform="translate(0 0)" fill="#fff"/>
    </g>
    <g id="Group_28" data-name="Group 28" transform="translate(-354.289 3152.302)" opacity="0.4">
      <path id="Path_8-2" data-name="Path 8" d="M1372.3,522.737a8.019,8.019,0,1,1,7.339-4.755A7.972,7.972,0,0,1,1372.3,522.737Zm.02-13.576a5.558,5.558,0,1,0,2.251.48h0A5.51,5.51,0,0,0,1372.32,509.161Z" fill="#fff"/>
    </g>
    <g id="Group_29" data-name="Group 29" transform="translate(85.251 3653.206)" opacity="0.4">
      <path id="Path_10" data-name="Path 10" d="M424.709,161.423h-.017a1.083,1.083,0,0,1-1.056-.955l-3.316-27.6-2.736,24.71a1.082,1.082,0,0,1-2.09.253l-4.39-11.926h-3.9a1.082,1.082,0,0,1-.882-.454L402.24,139.7l-5.08,5.834a1.08,1.08,0,0,1-.816.37H379.179a1.082,1.082,0,1,1,0-2.163h16.673l5.661-6.5a1,1,0,0,1,.868-.37,1.072,1.072,0,0,1,.827.452l4.552,6.413h4.1a1.089,1.089,0,0,1,1.016.71l3.066,8.333,3.263-29.464a1.085,1.085,0,0,1,1.072-.964h0a1.082,1.082,0,0,1,1.072.952l3.5,29.155,1.226-7.807a1.087,1.087,0,0,1,1.071-.914h6.045l2.67-3.062a1.079,1.079,0,0,1,.775-.37.965.965,0,0,1,.8.317l3.12,3.115h15.093l4.57-5.482a1.111,1.111,0,0,1,.818-.387,1,1,0,0,1,.827.366l4.829,5.5h15.638a1.082,1.082,0,0,1,0,2.163H466.209a1.087,1.087,0,0,1-.813-.366l-4.32-4.92-4.084,4.9a1.079,1.079,0,0,1-.83.385H440.113a1.084,1.084,0,0,1-.763-.315l-2.617-2.614-2.232,2.559a1.073,1.073,0,0,1-.813.37h-5.615l-2.294,14.6A1.082,1.082,0,0,1,424.709,161.423Z" transform="translate(0 0)" fill="#fff"/>
    </g>
    <path id="Path_14" data-name="Path 14" d="M-1703.716,242.54l-.352-.07a8.048,8.048,0,0,1-6.368-9.44l2.782-14.316,16.163,3.143-2.784,14.315a8.023,8.023,0,0,1-3.4,5.14,8.036,8.036,0,0,1-4.493,1.379A8.081,8.081,0,0,1-1703.716,242.54Zm-5.456-9.265a6.716,6.716,0,0,0,1.03,5.073,6.726,6.726,0,0,0,4.321,2.859l.355.071a6.736,6.736,0,0,0,5.07-1.035,6.733,6.733,0,0,0,2.858-4.316l2.538-13.053-13.636-2.652Zm1.518-14.562,2.784-14.317a8.056,8.056,0,0,1,9.44-6.367l.351.067a8.055,8.055,0,0,1,6.369,9.443l-2.781,14.317Zm-10.034,1.059V206.464l4.312,6.392a4.387,4.387,0,0,1-1.184,6.089l-.159.108a4.367,4.367,0,0,1-2.449.75A4.408,4.408,0,0,1-1717.688,219.772Z" transform="translate(1717.688 3622)" fill="#fff" stroke="rgba(0,0,0,0)" stroke-width="1" opacity="0.4"/>
    <g id="Group_30" data-name="Group 30" transform="translate(-1286.789 3386.178)" opacity="0.4">
      <path id="Path_7-2" data-name="Path 7" d="M1373.36,524.861a9.081,9.081,0,1,1,8.311-5.385A9.027,9.027,0,0,1,1373.36,524.861Zm.023-15.374a6.294,6.294,0,1,0,2.549.544h0A6.239,6.239,0,0,0,1373.383,509.487Z" transform="translate(0 0)" fill="#fff"/>
    </g>
    <path id="Path_15" data-name="Path 15" d="M-902.976,322l17.779-26.716-15.693-10.442-19.671,29.552A54.49,54.49,0,0,0-919.77,322h-3.153a58.729,58.729,0,0,1-.736-8.014l-.012-.486,20.21-30.369-.929-.619a3.029,3.029,0,0,1-1.192-4.085,3.029,3.029,0,0,1,4.229-.48l22.693,15.1a3.03,3.03,0,0,1,1.187,4.087,3.021,3.021,0,0,1-4.223.478l-.932-.619L-899.269,322Zm-13.351,0a28.229,28.229,0,0,1-.966-6.717l15.088-22.674,10.348,6.885-2.963,4.453-4.488-2.989a2.056,2.056,0,0,0-2.849.576,2.051,2.051,0,0,0,.571,2.85l4.487,2.984-2.581,3.88-4.488-2.988a2.061,2.061,0,0,0-2.851.575,2.055,2.055,0,0,0,.574,2.849l4.487,2.986L-906.835,322Zm22.569-40.647,5.317-7.994-1.552-1.029a1.2,1.2,0,0,1-.332-1.664,1.2,1.2,0,0,1,1.663-.334l12.128,8.074a1.2,1.2,0,0,1,.333,1.66,1.2,1.2,0,0,1-1.663.337l-1.553-1.033-5.317,7.99Z" transform="translate(1734 3622)" fill="#fff" stroke="rgba(0,0,0,0)" stroke-width="1" opacity="0.4"/>
    <g id="Group_31" data-name="Group 31" transform="translate(579.251 3770.206)" opacity="0.4">
      <path id="Path_10-2" data-name="Path 10" d="M417.331,155.239h-.014a.912.912,0,0,1-.889-.8l-2.791-23.23-2.3,20.8a.91.91,0,0,1-1.759.213l-3.7-10.038H402.6a.911.911,0,0,1-.742-.382l-3.435-4.84-4.276,4.911a.909.909,0,0,1-.687.312H379.007a.91.91,0,1,1,0-1.821h14.034l4.765-5.467a.838.838,0,0,1,.731-.312.9.9,0,0,1,.7.381l3.831,5.4h3.449a.917.917,0,0,1,.855.6l2.581,7.014,2.746-24.8a.913.913,0,0,1,.9-.812h0a.911.911,0,0,1,.9.8l2.947,24.54,1.032-6.571a.915.915,0,0,1,.9-.769h5.088l2.248-2.577a.909.909,0,0,1,.653-.312.812.812,0,0,1,.676.267l2.626,2.622h12.7l3.847-4.615a.935.935,0,0,1,.689-.326.839.839,0,0,1,.7.308l4.065,4.633h13.163a.91.91,0,0,1,0,1.821H452.262a.915.915,0,0,1-.685-.308l-3.636-4.142-3.438,4.125a.908.908,0,0,1-.7.324H430.3a.913.913,0,0,1-.642-.265l-2.2-2.2-1.878,2.154a.9.9,0,0,1-.685.312h-4.726l-1.931,12.289A.911.911,0,0,1,417.331,155.239Z" transform="translate(0 0)" fill="#fff"/>
    </g>
  </g>
</svg>
