<svg width="135" height="40" viewBox="0 0 135 40" fill="none" xmlns="http://www.w3.org/2000/svg">
<path d="M130.1 40.0004L4.80043 40.0004C4.16773 40.0089 3.53976 39.8905 2.95357 39.6523C2.36738 39.4141 1.83485 39.0608 1.38744 38.6134C0.940015 38.166 0.586767 37.6335 0.348545 37.0473C0.110322 36.4611 -0.00804732 35.8331 0.000424656 35.2004L0.000424656 4.80043C-0.00804732 4.16773 0.110322 3.53976 0.348545 2.95357C0.586767 2.36738 0.940015 1.83485 1.38744 1.38744C1.83485 0.940015 2.36738 0.586767 2.95357 0.348545C3.53976 0.110322 4.16773 -0.00804732 4.80043 0.000424656L130.2 0.000424656C131.473 0.000424656 132.694 0.506137 133.595 1.40631C134.495 2.30649 135 3.52739 135 4.80043V35.3004C134.957 36.5678 134.421 37.7682 133.505 38.646C132.59 39.5238 131.369 40.0098 130.1 40.0004Z" fill="#A6A6A6"/>
<path d="M130.099 39.0004L4.79943 39.0004C3.79161 39.0004 2.82506 38.6001 2.11242 37.8874C1.39978 37.1748 0.999428 36.2083 0.999428 35.2004L0.999428 4.80043C0.999428 3.7926 1.39978 2.82606 2.11242 2.11342C2.82506 1.40078 3.79161 1.00043 4.79943 1.00043L130.199 1.00043C131.207 1.00043 132.174 1.40078 132.886 2.11342C133.599 2.82606 133.999 3.7926 133.999 4.80043V35.3004C133.94 36.2968 133.504 37.2333 132.78 37.9202C132.056 38.6072 131.098 38.9933 130.099 39.0004Z" fill="black"/>
<path fill-rule="evenodd" clip-rule="evenodd" d="M100.857 13.0353V13.0553H102.187C102.411 13.0561 102.636 13.036 102.857 12.9953C103.059 12.9486 103.252 12.8675 103.427 12.7553C103.598 12.6331 103.739 12.4721 103.837 12.2853C103.945 12.0494 104.006 11.7947 104.017 11.5353V11.2853C104.026 11.1355 104.026 10.9852 104.017 10.8353C103.996 10.6902 103.966 10.5465 103.927 10.4053C103.888 10.273 103.834 10.1455 103.767 10.0253C103.704 9.90985 103.623 9.80519 103.527 9.71535C103.422 9.62486 103.304 9.55069 103.177 9.49535C103.025 9.44253 102.867 9.41221 102.707 9.40535C102.522 9.3944 102.337 9.42516 102.167 9.49535C102.005 9.56115 101.858 9.65991 101.737 9.78535C101.607 9.9231 101.508 10.0867 101.447 10.2653C101.377 10.4297 101.343 10.6069 101.347 10.7853C101.339 10.9899 101.384 11.193 101.477 11.3753C101.56 11.5404 101.689 11.6788 101.847 11.7753C102.027 11.8834 102.228 11.9516 102.437 11.9753C102.696 12.0051 102.957 12.0051 103.217 11.9753C103.193 12.0199 103.163 12.0604 103.127 12.0953C103.076 12.1411 103.019 12.1782 102.957 12.2053C102.859 12.2417 102.759 12.2685 102.657 12.2853C102.503 12.2971 102.35 12.2971 102.197 12.2853L101.057 12.2853C101.024 12.2753 100.989 12.2753 100.957 12.2853L99.5565 12.2553C99.5407 12.2487 99.5237 12.2453 99.5065 12.2453C99.4894 12.2453 99.4724 12.2487 99.4565 12.2553C99.454 12.2642 99.4521 12.2732 99.4511 12.2822L98.2666 12.2566V12.2554H98.207C98.1912 12.2488 98.1737 12.2453 98.1566 12.2453C98.1394 12.2453 98.1224 12.2487 98.1066 12.2553L97.8766 12.2554C97.8335 12.2474 97.7926 12.2303 97.7565 12.2054C97.7096 12.1911 97.6678 12.1632 97.6366 12.1254C97.5978 12.0888 97.5671 12.0445 97.5466 11.9954C97.5352 11.9292 97.5352 11.8615 97.5466 11.7954V10.7954H96.7166V11.9154C96.7256 12.0014 96.7005 12.0876 96.6466 12.1554C96.5953 12.2078 96.5288 12.2428 96.4566 12.2554C96.3538 12.2715 96.2493 12.2715 96.1466 12.2554H92.2666C92.2169 12.2463 92.1715 12.2218 92.1366 12.1854C92.087 12.1504 92.0487 12.1018 92.0266 12.0454C92.0085 11.9596 92.0085 11.8711 92.0266 11.7854C92.0231 11.7187 92.0231 11.652 92.0266 11.5854V11.3254L92.0866 11.0754C92.1566 10.9954 92.1566 10.9254 92.1566 10.8654L91.7666 10.7454L91.3765 10.6154C91.3765 10.6201 91.3811 10.6272 91.3869 10.6362C91.4056 10.6651 91.4375 10.7144 91.3765 10.7754C91.335 10.8169 91.3339 10.8611 91.3327 10.9108C91.3315 10.9569 91.3302 11.0076 91.2965 11.0654C91.2265 11.1854 91.2265 11.3054 91.2265 11.4254C91.2129 11.545 91.2129 11.6657 91.2265 11.7854C91.2107 11.8981 91.2107 12.0126 91.2265 12.1254C91.2617 12.3003 91.337 12.4646 91.4465 12.6054C91.4848 12.6595 91.5283 12.7098 91.5765 12.7554C91.6834 12.8632 91.8133 12.9452 91.9566 12.9954C92.1045 13.0469 92.2599 13.0739 92.4166 13.0754H96.1166C96.4755 13.102 96.8316 12.9952 97.1166 12.7754C97.178 12.8364 97.2489 12.8871 97.3265 12.9254L97.5666 13.0154L97.8265 13.0654H98.2666V13.0353H99.542C99.5567 13.0384 99.5718 13.0384 99.5865 13.0353H99.5966C99.6124 13.0419 99.6294 13.0453 99.6466 13.0453C99.6637 13.0453 99.6807 13.0419 99.6966 13.0353H100.857ZM102.507 10.2153C102.583 10.2051 102.66 10.2051 102.737 10.2153C102.843 10.2068 102.951 10.2276 103.047 10.2753C103.117 10.3383 103.172 10.4171 103.207 10.5053C103.244 10.6022 103.271 10.7028 103.287 10.8053V11.1053C103.006 11.1859 102.708 11.1859 102.427 11.1053C102.339 11.0792 102.262 11.0249 102.208 10.9509C102.153 10.8768 102.125 10.7871 102.127 10.6953C102.122 10.6187 102.139 10.5424 102.177 10.4753C102.206 10.412 102.251 10.3571 102.307 10.3153C102.364 10.2664 102.433 10.2321 102.507 10.2153Z" fill="white"/>
<path d="M102.587 7.54535L102.007 8.14535L102.597 8.74535L103.197 8.15535L102.587 7.54535Z" fill="white"/>
<path d="M56.743 7.87181C56.6492 7.96558 56.5966 8.09276 56.5966 8.22536C56.5999 8.28681 56.6159 8.34691 56.6434 8.40195C56.6709 8.45699 56.7094 8.5058 56.7566 8.54536C56.8574 8.63001 56.9849 8.67641 57.1166 8.67641C57.2482 8.67641 57.3757 8.63001 57.4766 8.54536C57.5571 8.45863 57.6002 8.34366 57.5966 8.22536C57.5966 8.09276 57.5439 7.96558 57.4501 7.87181C57.3563 7.77804 57.2292 7.72536 57.0966 7.72536C56.9639 7.72536 56.8368 7.77804 56.743 7.87181Z" fill="white"/>
<path d="M56.6466 13.0054H57.4966V9.20536H56.6466V13.0054Z" fill="white"/>
<path d="M53.6666 13.0554H52.8466V8.34536H53.6666V13.0554Z" fill="white"/>
<path d="M51.9565 12.8554C51.9467 13.1354 51.8927 13.4122 51.7965 13.6754C51.7016 13.9038 51.5622 14.1112 51.3865 14.2854C51.2103 14.4584 50.9988 14.5914 50.7665 14.6754C50.5002 14.7704 50.2193 14.8177 49.9365 14.8154H49.5265V13.9954H49.9365C50.1184 13.9986 50.2999 13.9784 50.4765 13.9354C50.6196 13.9003 50.7508 13.8278 50.8565 13.7254C50.9584 13.6214 51.0339 13.4945 51.0765 13.3554C51.1232 13.169 51.1467 12.9775 51.1465 12.7854V10.7854H51.9565V12.8554Z" fill="white"/>
<path d="M50.9565 9.38536L51.5465 8.78536L52.1465 9.38536L51.5465 9.98536L50.9565 9.38536Z" fill="white"/>
<path fill-rule="evenodd" clip-rule="evenodd" d="M62.5065 10.5854C62.5144 11.0388 62.4258 11.4888 62.2465 11.9054C62.0933 12.2634 61.8353 12.5667 61.5065 12.7754C61.1697 12.9722 60.7867 13.0759 60.3965 13.0759C60.0064 13.0759 59.6234 12.9722 59.2865 12.7754C58.9548 12.5718 58.6931 12.2718 58.5365 11.9154C58.3506 11.5076 58.2583 11.0634 58.2665 10.6154V10.2854C58.2587 9.83191 58.3473 9.38197 58.5265 8.96537C58.6888 8.60734 58.9488 8.30233 59.2765 8.08537C59.6134 7.88854 59.9964 7.78481 60.3865 7.78481C60.7767 7.78481 61.1597 7.88854 61.4965 8.08537C61.8211 8.29459 62.0781 8.59328 62.2365 8.94537C62.4268 9.36585 62.5191 9.82402 62.5065 10.2854V10.5854ZM61.6166 10.2854C61.643 9.82972 61.5315 9.37668 61.2966 8.98537C61.1953 8.83954 61.0587 8.72178 60.8995 8.64308C60.7404 8.56438 60.5639 8.52732 60.3865 8.53537C60.2101 8.52414 60.0339 8.55987 59.8758 8.63892C59.7177 8.71797 59.5834 8.83751 59.4865 8.98537C59.2416 9.37317 59.1229 9.82731 59.1465 10.2854V10.5754C59.1225 11.0321 59.2375 11.4854 59.4765 11.8754C59.5782 12.0238 59.7161 12.144 59.877 12.2244C60.038 12.3049 60.2168 12.3431 60.3965 12.3354C60.5729 12.3466 60.7492 12.3109 60.9073 12.2318C61.0654 12.1528 61.1997 12.0332 61.2966 11.8854C61.534 11.4914 61.6457 11.0344 61.6166 10.5754V10.2854Z" fill="white"/>
<path d="M65.9214 11.4054C65.9632 11.4961 65.9822 11.5957 65.9766 11.6954C65.9834 11.786 65.9699 11.8771 65.937 11.9619C65.9042 12.0467 65.8527 12.123 65.7865 12.1854C65.5821 12.3275 65.3348 12.3946 65.0865 12.3754C64.7904 12.394 64.497 12.3091 64.2565 12.1354C64.1616 12.0527 64.0869 11.9492 64.0383 11.833C63.9898 11.7169 63.9686 11.591 63.9766 11.4654H63.0865C63.0785 11.7648 63.1661 12.059 63.3365 12.3054C63.527 12.5548 63.7784 12.7511 64.0666 12.8754C64.3835 13.0071 64.7233 13.0751 65.0666 13.0754C65.5386 13.1023 66.0063 12.9722 66.3965 12.7054C66.5523 12.5901 66.6782 12.4391 66.7634 12.2651C66.8487 12.0911 66.8909 11.8991 66.8866 11.7054C66.8897 11.4646 66.8312 11.2271 66.7165 11.0154C66.5846 10.8017 66.4027 10.6232 66.1866 10.4954C65.8728 10.3176 65.5364 10.183 65.1866 10.0954C64.8852 10.0184 64.5982 9.89348 64.3365 9.72536C64.256 9.67652 64.1896 9.60744 64.144 9.52498C64.0984 9.44253 64.0751 9.34958 64.0765 9.25536C64.0726 9.15589 64.0923 9.0569 64.134 8.96652C64.1758 8.87613 64.2383 8.79691 64.3166 8.73536C64.5143 8.604 64.7496 8.54079 64.9865 8.55536C65.2455 8.53718 65.502 8.61555 65.7066 8.77536C65.7907 8.85649 65.8566 8.95467 65.8997 9.06332C65.9428 9.17198 65.9622 9.2886 65.9566 9.40536H66.8365C66.8374 9.12226 66.7577 8.84476 66.6065 8.60536C66.443 8.3609 66.2144 8.16695 65.9465 8.04536C65.6499 7.90541 65.3245 7.83691 64.9965 7.84536C64.5264 7.82035 64.0625 7.962 63.6866 8.24536C63.5307 8.36125 63.4043 8.51212 63.3174 8.68581C63.2306 8.85951 63.1858 9.05117 63.1866 9.24536C63.189 9.48098 63.2554 9.71152 63.3787 9.91231C63.502 10.1131 63.6775 10.2766 63.8866 10.3854C64.2004 10.5679 64.5365 10.7091 64.8866 10.8054C65.19 10.8759 65.4781 11.0013 65.7365 11.1754C65.8161 11.2358 65.8795 11.3148 65.9214 11.4054Z" fill="white"/>
<path fill-rule="evenodd" clip-rule="evenodd" d="M73.0565 13.0554H72.9665C72.8036 13.0706 72.6395 13.0706 72.4766 13.0554C72.328 13.0219 72.1837 12.9716 72.0466 12.9054C71.9146 12.8408 71.7932 12.7565 71.6866 12.6554C71.5825 12.5474 71.4979 12.4222 71.4366 12.2854C71.3832 12.367 71.3155 12.4381 71.2365 12.4954C71.1539 12.5603 71.0632 12.6141 70.9665 12.6554C70.8734 12.6958 70.7762 12.726 70.6765 12.7454H70.3765C70.209 12.7465 70.0428 12.716 69.8866 12.6554C69.7329 12.5989 69.5932 12.5102 69.4766 12.3954C69.3557 12.2797 69.2603 12.1401 69.1965 11.9854C69.1218 11.8118 69.0843 11.6244 69.0865 11.4354C69.0843 11.2206 69.1323 11.0083 69.2266 10.8154C69.3168 10.6406 69.435 10.4819 69.5765 10.3454C69.7348 10.2105 69.9095 10.0963 70.0965 10.0054C70.2887 9.91182 70.4857 9.82837 70.6866 9.75536L70.6166 9.44536L71.4065 9.25536L72.0065 11.5754C72.0322 11.7017 72.0909 11.819 72.1765 11.9154C72.2489 11.9989 72.3373 12.0669 72.4366 12.1154C72.5226 12.1646 72.618 12.1952 72.7165 12.2054H73.0565V12.2854H73.8265C74.0583 12.2853 74.2895 12.2619 74.5165 12.2154C74.7566 12.1741 74.9938 12.1173 75.2266 12.0454C75.4557 11.9869 75.6798 11.9099 75.8965 11.8154C76.0881 11.7433 76.2751 11.6598 76.4566 11.5654L76.1265 11.4654L75.7365 11.2854L75.3765 11.1854L75.0466 11.0954L74.7565 11.0354C74.6935 11.027 74.6296 11.027 74.5666 11.0354H74.4366C74.3952 11.0453 74.3573 11.066 74.3265 11.0954C74.2943 11.1277 74.2674 11.1648 74.2465 11.2054C74.2101 11.2532 74.183 11.3075 74.1665 11.3654L73.4165 11.1354C73.4561 11.0081 73.5063 10.8843 73.5666 10.7654C73.625 10.6553 73.6991 10.5542 73.7865 10.4654C73.8725 10.3798 73.9745 10.3118 74.0865 10.2654C74.2101 10.2146 74.3431 10.1907 74.4766 10.1954L74.7365 10.2854L75.0865 10.3854L75.5165 10.5154L75.9766 10.6754L76.4165 10.8354L76.8065 10.9754L77.0965 11.0854H77.2465L77.3565 11.7554L77.2465 11.8254L77.0065 11.9854C77.0316 12.0404 77.0653 12.0911 77.1065 12.1354L77.2465 12.2154H78.0765V12.2586L79.1711 12.2822C79.1715 12.2788 79.172 12.2755 79.1726 12.2721C79.1736 12.2665 79.1749 12.2609 79.1765 12.2554C79.1924 12.2488 79.2094 12.2454 79.2266 12.2454C79.2437 12.2454 79.2607 12.2488 79.2766 12.2554L80.6765 12.2854C80.7091 12.2753 80.744 12.2753 80.7766 12.2854L80.9865 12.2854C81.0895 12.2977 81.1936 12.2977 81.2966 12.2854C81.3648 12.2625 81.429 12.2287 81.4865 12.1854C81.528 12.1393 81.5587 12.0847 81.5765 12.0254C81.582 11.9588 81.582 11.8919 81.5765 11.8254V10.8254H82.3866V11.7654C82.3814 11.8342 82.3902 11.9034 82.4126 11.9687C82.4349 12.034 82.4703 12.0941 82.5165 12.1454C82.632 12.2387 82.7784 12.2852 82.9266 12.2754H83.0465C83.0984 12.2644 83.1466 12.2403 83.1865 12.2054C83.2354 12.1655 83.2733 12.1139 83.2965 12.0554C83.3316 11.9768 83.3486 11.8914 83.3465 11.8054V10.8054H84.1565V11.7454C84.1493 11.8159 84.1572 11.8871 84.1796 11.9543C84.202 12.0216 84.2385 12.0833 84.2866 12.1354C84.3464 12.1912 84.4176 12.2335 84.4952 12.2594C84.5729 12.2853 84.6552 12.2941 84.7365 12.2854C84.7894 12.2959 84.8437 12.2959 84.8966 12.2854C84.9498 12.2725 84.9984 12.2447 85.0366 12.2054C85.0778 12.1611 85.1115 12.1104 85.1366 12.0554C85.1491 11.9826 85.1491 11.9082 85.1366 11.8354V10.8354H85.9465V11.8354C85.9429 11.9043 85.9544 11.9731 85.9803 12.0371C86.0062 12.101 86.0459 12.1585 86.0965 12.2054C86.2319 12.2868 86.3889 12.3251 86.5465 12.3154H86.7365V12.2854H87.7365C87.7896 12.2742 87.8404 12.2539 87.8866 12.2254C87.9374 12.1824 87.9813 12.1318 88.0165 12.0754C88.0346 11.9863 88.0346 11.8945 88.0165 11.8054C88.021 11.7454 88.021 11.6853 88.0165 11.6254V10.9354C88.0165 10.8654 88.0166 10.7954 87.9666 10.7354C87.9696 10.6887 87.9696 10.642 87.9666 10.5954L88.6066 10.2854V10.5954C88.6131 10.6852 88.6131 10.7755 88.6066 10.8654L88.6665 11.1754V11.7254C88.6687 11.9241 88.6313 12.1212 88.5565 12.3054C88.4858 12.4586 88.3875 12.5976 88.2665 12.7154C88.1454 12.8169 88.0063 12.8949 87.8566 12.9454C87.7133 13.0016 87.5604 13.0288 87.4065 13.0254H86.8665V13.1254H86.5465C86.3508 13.1305 86.1554 13.107 85.9666 13.0554C85.8065 13.0099 85.6593 12.9277 85.5366 12.8154C85.4241 12.9185 85.2912 12.9968 85.1466 13.0454C84.9999 13.1016 84.8436 13.1288 84.6865 13.1254C84.5073 13.1301 84.3284 13.1065 84.1565 13.0554C84.0035 13.0074 83.8633 12.9254 83.7466 12.8154C83.6322 12.9107 83.5041 12.9883 83.3665 13.0454C83.2287 13.0959 83.0834 13.123 82.9365 13.1254C82.7531 13.1329 82.5699 13.1057 82.3966 13.0454C82.2481 12.9965 82.1093 12.922 81.9865 12.8254C81.6965 13.0351 81.3441 13.1408 80.9865 13.1254H80.5666V13.0354H79.4165C79.4007 13.042 79.3837 13.0454 79.3666 13.0454C79.3494 13.0454 79.3324 13.042 79.3166 13.0354H79.3065C79.2918 13.0384 79.2767 13.0384 79.262 13.0354H77.9566C77.9387 13.039 77.9202 13.0382 77.9027 13.033C77.8962 13.0311 77.8898 13.0285 77.8838 13.0254H77.4766C77.2328 13.0272 76.9923 12.9688 76.7766 12.8554C76.5716 12.7386 76.4048 12.5649 76.2966 12.3554L75.7565 12.5954C75.5571 12.6791 75.3535 12.7525 75.1465 12.8154C74.9366 12.8754 74.7165 12.9254 74.4965 12.9654C74.2755 13.0056 74.0512 13.0257 73.8265 13.0254H73.0565V13.0554ZM71.0565 11.4354C71.0668 11.3724 71.0668 11.3083 71.0565 11.2454C71.0614 11.1821 71.0614 11.1186 71.0565 11.0554C71.0565 10.9854 71.0565 10.9054 70.9865 10.8254C70.9527 10.7867 70.9516 10.7456 70.9504 10.7023C70.9492 10.656 70.9479 10.607 70.9065 10.5554C70.6239 10.6371 70.3569 10.7656 70.1166 10.9354C70.0328 10.9937 69.9645 11.0715 69.9174 11.1621C69.8704 11.2526 69.8461 11.3533 69.8465 11.4554C69.845 11.5298 69.8659 11.603 69.9065 11.6654C69.936 11.7316 69.9848 11.7873 70.0466 11.8254C70.1036 11.8671 70.1681 11.8976 70.2365 11.9154C70.3058 11.9302 70.3773 11.9302 70.4465 11.9154C70.5918 11.8992 70.7318 11.8514 70.8565 11.7754C70.9607 11.6903 71.0287 11.5687 71.0466 11.4354H71.0565Z" fill="white"/>
<path d="M74.4065 8.29536L73.8265 8.88536L74.4165 9.48536L75.0165 8.89536L74.4065 8.29536Z" fill="white"/>
<path d="M87.8065 8.37536L87.2166 8.96536L87.8065 9.56536L88.4065 8.97536L87.8065 8.37536Z" fill="white"/>
<path d="M93.6566 10.5254L93.1066 9.97536L93.6466 9.40536L94.2066 9.97536L93.6566 10.5254Z" fill="white"/>
<path d="M95.0266 10.5254L94.4766 9.96536L95.0166 9.40536L95.5866 9.96536L95.0266 10.5254Z" fill="white"/>
<path d="M106.397 13.0554C106.19 13.0723 105.983 13.0723 105.777 13.0554C105.628 13.033 105.483 12.9892 105.347 12.9254C105.238 12.8746 105.142 12.7993 105.067 12.7054C104.992 12.6089 104.935 12.5008 104.897 12.3854C104.861 12.2545 104.838 12.1206 104.827 11.9854V8.34535H105.647V11.4354C105.634 11.5751 105.634 11.7156 105.647 11.8554C105.65 11.946 105.682 12.0333 105.737 12.1054C105.801 12.1634 105.881 12.2016 105.967 12.2154C106.11 12.2279 106.253 12.2279 106.397 12.2154V12.2854H107.807C107.86 12.2742 107.91 12.2539 107.957 12.2254C108.005 12.1798 108.048 12.1295 108.087 12.0754C108.121 11.9897 108.138 11.8978 108.137 11.8054C108.141 11.7454 108.141 11.6853 108.137 11.6254V11.4054C108.141 11.3254 108.141 11.2453 108.137 11.1654V10.5954L108.737 10.2854C108.742 10.3184 108.742 10.3523 108.737 10.3854V11.7254C108.739 11.9241 108.701 12.1212 108.627 12.3054C108.556 12.4586 108.457 12.5976 108.337 12.7154C108.215 12.8169 108.076 12.8949 107.927 12.9454C107.783 13.0008 107.63 13.028 107.477 13.0254H106.397V13.0554Z" fill="white"/>
<path d="M106.377 14.2854L106.977 14.8054L107.477 14.2854L106.917 13.7254L106.377 14.2854Z" fill="white"/>
<path d="M107.737 14.2854L108.347 14.8054L108.837 14.2854L108.277 13.7254L107.737 14.2854Z" fill="white"/>
<path d="M111.587 12.8554C111.574 13.1359 111.516 13.4127 111.417 13.6754C111.325 13.9032 111.189 14.1106 111.017 14.2854C110.837 14.4586 110.622 14.5915 110.387 14.6754C110.12 14.7712 109.839 14.8186 109.557 14.8154H109.157V13.9954H109.557C109.742 13.998 109.926 13.9778 110.107 13.9354C110.248 13.9025 110.376 13.8296 110.477 13.7254C110.578 13.6214 110.654 13.4945 110.697 13.3554C110.738 13.1684 110.752 12.9763 110.737 12.7854V10.7854H111.557L111.587 12.8554Z" fill="white"/>
<path d="M113.407 13.0654C113.589 13.0512 113.77 13.0211 113.947 12.9754C114.146 12.9409 114.337 12.866 114.507 12.7554C114.591 12.7021 114.666 12.6344 114.727 12.5554C114.812 12.4515 114.875 12.3316 114.913 12.2027C114.951 12.0739 114.962 11.9387 114.947 11.8054C114.913 11.6193 114.842 11.4422 114.737 11.2854L114.277 10.8254L114.017 10.4354L113.847 10.1854L113.747 10.0354V9.96535L113.517 9.62535L112.837 10.0754L114.057 11.8454C114.088 11.8912 114.112 11.9419 114.127 11.9953C114.134 12.0127 114.138 12.0314 114.138 12.0504C114.138 12.0693 114.134 12.088 114.127 12.1054C114.103 12.1566 114.067 12.201 114.021 12.2342C113.976 12.2675 113.923 12.2885 113.867 12.2954C113.711 12.3213 113.552 12.3213 113.397 12.2954C113.201 12.279 113.007 12.2456 112.817 12.1954C112.617 12.1493 112.42 12.0925 112.227 12.0254L111.997 12.8054L112.387 12.9254L112.657 13.0054L112.917 13.0654H113.407Z" fill="white"/>
<path fill-rule="evenodd" clip-rule="evenodd" d="M75.18 23.07H79.81H79.82C80.168 23.0752 80.5116 23.1489 80.8311 23.2869C81.1506 23.425 81.4398 23.6246 81.6822 23.8744C81.9246 24.1242 82.1154 24.4193 82.2437 24.7428C82.372 25.0663 82.4353 25.412 82.43 25.76H75.15C74.5343 25.7588 73.9277 25.6114 73.38 25.33C73.1986 25.7396 72.9483 26.115 72.64 26.44C71.9142 27.2124 70.9116 27.6652 69.8522 27.699C68.7929 27.7327 67.7634 27.3447 66.99 26.62C66.2554 27.2927 65.2961 27.6672 64.3 27.67C63.711 27.6718 63.1294 27.5383 62.6 27.28C62.113 28.831 61.0956 30.1611 59.726 31.037C58.3564 31.9128 56.7222 32.2786 55.11 32.07C53.4224 31.8118 51.8853 30.9517 50.7824 29.6485C49.6796 28.3453 49.0855 26.687 49.11 24.98V20.07C49.4567 20.0647 49.801 20.1278 50.1234 20.2556C50.4457 20.3834 50.7397 20.5734 50.9886 20.8149C51.2374 21.0563 51.4363 21.3444 51.5738 21.6627C51.7113 21.981 51.7848 22.3233 51.79 22.67V25.01C51.7716 26.0892 52.1524 27.1372 52.8592 27.9529C53.566 28.7686 54.5492 29.2946 55.62 29.43H56.03C56.5894 29.4313 57.1436 29.3224 57.661 29.1096C58.1783 28.8967 58.6487 28.584 59.0452 28.1893C59.4417 27.7947 59.7566 27.3258 59.9719 26.8095C60.1872 26.2931 60.2987 25.7394 60.3 25.18V20H62.95V22.81V23.6C62.95 23.966 63.0954 24.317 63.3542 24.5758C63.613 24.8346 63.964 24.98 64.33 24.98C64.696 24.98 65.047 24.8346 65.3058 24.5758C65.5646 24.317 65.71 23.966 65.71 23.6V20H68.36V22.56V23.64C68.3499 23.7163 68.3499 23.7937 68.36 23.87C68.3963 24.2301 68.5726 24.5616 68.851 24.7929C69.1293 25.0243 69.4874 25.137 69.8481 25.1068C70.2087 25.0767 70.5431 24.906 70.7792 24.6316C71.0152 24.3573 71.134 24.0011 71.11 23.64V20.01H73.8V21.71C73.8013 21.8899 73.838 22.0678 73.9081 22.2335C73.9782 22.3992 74.0802 22.5495 74.2083 22.6758C74.3365 22.8021 74.4882 22.9019 74.655 22.9696C74.8217 23.0372 75.0001 23.0713 75.18 23.07ZM111.12 31.2974C110.624 31.7922 109.951 32.07 109.25 32.07V24.43H111.9V29.43C111.897 30.1311 111.617 30.8026 111.12 31.2974ZM84.74 32.01C85.4411 32.01 86.1136 31.7322 86.6103 31.2374C87.107 30.7426 87.3874 30.0711 87.39 29.37V20.01H84.74V32.01ZM104.6 22.63H102.6C102.476 22.6155 102.35 22.6296 102.232 22.6712C102.114 22.7128 102.008 22.7808 101.92 22.87C101.746 23.0674 101.649 23.3216 101.649 23.585C101.649 23.8483 101.746 24.1026 101.92 24.3C102.099 24.468 102.334 24.5642 102.58 24.57H107.17V25.29C107.002 27.1804 106.116 28.9344 104.693 30.1904C103.271 31.4465 101.42 32.1088 99.5236 32.0408C97.627 31.9729 95.8288 31.1798 94.4997 29.8251C93.1706 28.4705 92.4119 26.6575 92.38 24.76V20.01H95.11V24.71C95.1311 25.9513 95.6424 27.1339 96.5323 27.9995C97.4223 28.8651 98.6186 29.3434 99.86 29.33C100.658 29.3258 101.443 29.1213 102.142 28.7352C102.841 28.3491 103.432 27.7937 103.86 27.12H102.62C102.153 27.1197 101.691 27.0268 101.26 26.8465C100.829 26.6663 100.438 26.4024 100.11 26.07C99.7763 25.7486 99.5105 25.3635 99.3284 24.9375C99.1463 24.5115 99.0517 24.0533 99.05 23.59C99.0593 22.6435 99.44 21.7386 100.11 21.07C100.428 20.7369 100.81 20.4706 101.232 20.2869C101.655 20.1031 102.109 20.0056 102.57 20H107.26C107.255 20.7011 106.972 21.3715 106.473 21.8644C105.975 22.3574 105.301 22.6327 104.6 22.63ZM80.24 27.72H75.95C75.95 28.0032 76.0059 28.2836 76.1146 28.5451C76.2233 28.8066 76.3825 29.0441 76.5833 29.2438C76.784 29.4436 77.0222 29.6018 77.2842 29.7092C77.5462 29.8167 77.8268 29.8713 78.11 29.87H80.29V32.07C80.8551 32.0701 81.3974 31.8477 81.7998 31.4509C82.2021 31.0542 82.4321 30.515 82.44 29.95V27.72H80.24ZM109.78 20.7803C110.274 20.2871 110.942 20.01 111.64 20.01V20.07H116.93C116.914 20.7571 116.63 21.4107 116.139 21.891C115.647 22.3714 114.987 22.6402 114.3 22.64H109.01C109.01 21.9425 109.287 21.2735 109.78 20.7803Z" fill="white"/>
<path d="M27.66 8H14.34C11.3908 8 9 10.3908 9 13.34V26.66C9 29.6092 11.3908 32 14.34 32H27.66C30.6092 32 33 29.6092 33 26.66V13.34C33 10.3908 30.6092 8 27.66 8Z" fill="white"/>
<path d="M24.25 14C25.0644 13.047 25.4673 11.8098 25.37 10.56C24.1415 10.6798 23.0045 11.2625 22.19 12.19C21.7944 12.6407 21.4918 13.1651 21.2996 13.7332C21.1074 14.3012 21.0293 14.9017 21.07 15.5C21.6793 15.5087 22.2825 15.3781 22.8336 15.1181C23.3848 14.8582 23.8692 14.4757 24.25 14Z" fill="url(#paint0_linear)"/>
<path fill-rule="evenodd" clip-rule="evenodd" d="M21 19.78C21.03 19.78 22.8 18.19 22.8 18.19C24.3992 16.5176 26.5876 15.5346 28.9 15.45H33V26.66C33 28.0763 32.4374 29.4345 31.436 30.4359C30.4345 31.4374 29.0763 32 27.66 32H14.34C12.9237 32 11.5655 31.4374 10.564 30.4359C9.5626 29.4345 9 28.0763 9 26.66V15.45H13.07C15.3746 15.5293 17.5583 16.501 19.16 18.16C19.16 18.16 20.97 19.78 21 19.78ZM18.5385 25.9244C19.3156 26.2463 20.1287 26.4113 20.9699 26.41C21.8077 26.4087 22.6172 26.2224 23.3908 25.9005C24.1643 25.5787 24.8669 25.1076 25.4584 24.5143C26.0499 23.9209 26.5188 23.2168 26.8382 22.4423C27.1576 21.6677 27.3213 20.8378 27.32 20C27.2882 19.7886 27.1894 19.5929 27.0382 19.4417C26.8871 19.2906 26.6914 19.1918 26.48 19.16C26.237 19.1431 25.9969 19.2213 25.8103 19.378C25.6238 19.5347 25.5053 19.7577 25.48 20V20.6C25.3979 21.7916 24.8465 22.9019 23.9468 23.6874C23.047 24.4729 21.8724 24.8695 20.6807 24.79C19.4889 24.7106 18.3773 24.1616 17.5898 23.2636C16.8023 22.3656 16.4032 21.1919 16.48 20C16.48 19.7507 16.381 19.5116 16.2047 19.3353C16.0284 19.159 15.7893 19.06 15.54 19.06C15.2907 19.06 15.0516 19.159 14.8753 19.3353C14.699 19.5116 14.6 19.7507 14.6 20C14.596 20.8412 14.7585 21.6749 15.078 22.453C15.3974 23.2312 15.8677 23.9385 16.4615 24.5343C17.0554 25.13 17.7613 25.6025 18.5385 25.9244Z" fill="url(#paint1_linear)"/>
<defs>
<linearGradient id="paint0_linear" x1="21.02" y1="13.03" x2="25.39" y2="13.03" gradientUnits="userSpaceOnUse">
<stop stop-color="#1767E6"/>
<stop offset="0.64" stop-color="#14BBF2"/>
</linearGradient>
<linearGradient id="paint1_linear" x1="601.56" y1="197.003" x2="749.205" y2="671.707" gradientUnits="userSpaceOnUse">
<stop stop-color="#1767E6"/>
<stop offset="0.64" stop-color="#14BBF2"/>
</linearGradient>
</defs>
</svg>
